<svg id="visual" viewBox="0 0 960 540" width="960" height="540" xmlns="http://www.w3.org/2000/svg" xmlns:xlink="http://www.w3.org/1999/xlink" version="1.1"><rect x="0" y="0" width="960" height="540" fill="#ffffff"></rect><path d="M0 92L20 83.7C40 75.3 80 58.7 120 73C160 87.3 200 132.7 240 134C280 135.3 320 92.7 360 87.2C400 81.7 440 113.3 480 128.2C520 143 560 141 600 133.8C640 126.7 680 114.3 720 101.7C760 89 800 76 840 82.7C880 89.3 920 115.7 940 128.8L960 142L960 0L940 0C920 0 880 0 840 0C800 0 760 0 720 0C680 0 640 0 600 0C560 0 520 0 480 0C440 0 400 0 360 0C320 0 280 0 240 0C200 0 160 0 120 0C80 0 40 0 20 0L0 0Z" fill="#000000" stroke-linecap="round" stroke-linejoin="miter"></path></svg>